HIERARCHY
ROOT Hips
{
    OFFSET   0.000000   0.000000   0.000000
    CHANNELS 6 Xposition Yposition Zposition Zrotation Xrotation Yrotation
    JOINT Chest
    {
        OFFSET   0.000000   8.007230   0.000000
        CHANNELS 3 Zrotation Xrotation Yrotation
        JOINT Chest2
        {
            OFFSET   0.000000  22.077100   0.000000
            CHANNELS 3 Zrotation Xrotation Yrotation
            JOINT Neck
            {
                OFFSET   0.000000  23.254800  -0.000021
                CHANNELS 3 Zrotation Xrotation Yrotation
                JOINT Head
                {
                    OFFSET   0.000000  14.370000   1.956610
                    CHANNELS 3 Zrotation Xrotation Yrotation
                    End Site
                    {
                        OFFSET   0.000000  19.566000   0.000000
                    }
                }
            }
            JOINT LeftCollar
            {
                OFFSET   3.911900  19.017000  -0.467063
                CHANNELS 3 Zrotation Xrotation Yrotation
                JOINT LeftShoulder
                {
                    OFFSET  10.383700   0.000000   0.000000
                    CHANNELS 3 Zrotation Xrotation Yrotation
                    JOINT LeftElbow
                    {
                        OFFSET  26.662100   0.001529   0.000325
                        CHANNELS 3 Zrotation Xrotation Yrotation
                        JOINT LeftWrist
                        {
                            OFFSET  28.869000  -0.000011  -0.000096
                            CHANNELS 3 Zrotation Xrotation Yrotation
                            JOINT LeftFinger0
                            {
                                OFFSET   2.044650  -2.323460   3.252850
                                CHANNELS 3 Zrotation Xrotation Yrotation
                                JOINT LeftFinger01
                                {
                                    OFFSET   3.088130   0.000000   0.000000
                                    CHANNELS 3 Zrotation Xrotation Yrotation
                                    JOINT LeftFinger02
                                    {
                                        OFFSET   2.639460   0.000000   0.000000
                                        CHANNELS 3 Zrotation Xrotation Yrotation
                                        End Site
                                        {
                                            OFFSET   2.582190   0.000000   0.000000
                                        }
                                    }
                                }
                            }
                            JOINT LeftFinger1
                            {
                                OFFSET   8.364480   0.000000   3.252850
                                CHANNELS 3 Zrotation Xrotation Yrotation
                                JOINT LeftFinger11
                                {
                                    OFFSET   4.646930   0.000000   0.000000
                                    CHANNELS 3 Zrotation Xrotation Yrotation
                                    JOINT LeftFinger12
                                    {
                                        OFFSET   2.323460   0.000000   0.000000
                                        CHANNELS 3 Zrotation Xrotation Yrotation
                                        End Site
                                        {
                                            OFFSET   2.273050   0.000000   0.000000
                                        }
                                    }
                                }
                            }
                            JOINT LeftFinger2
                            {
                                OFFSET   8.364480   0.000016   1.078090
                                CHANNELS 3 Zrotation Xrotation Yrotation
                                JOINT LeftFinger21
                                {
                                    OFFSET   5.111620   0.000000   0.000000
                                    CHANNELS 3 Zrotation Xrotation Yrotation
                                    JOINT LeftFinger22
                                    {
                                        OFFSET   2.788160   0.000017   0.000000
                                        CHANNELS 3 Zrotation Xrotation Yrotation
                                        End Site
                                        {
                                            OFFSET   2.727660   0.000000   0.000000
                                        }
                                    }
                                }
                            }
                            JOINT LeftFinger3
                            {
                                OFFSET   7.899780   0.000015  -1.078090
                                CHANNELS 3 Zrotation Xrotation Yrotation
                                JOINT LeftFinger31
                                {
                                    OFFSET   4.646920   0.000000   0.000000
                                    CHANNELS 3 Zrotation Xrotation Yrotation
                                    JOINT LeftFinger32
                                    {
                                        OFFSET   2.323470   0.000000   0.000000
                                        CHANNELS 3 Zrotation Xrotation Yrotation
                                        End Site
                                        {
                                            OFFSET   2.273050   0.000000   0.000000
                                        }
                                    }
                                }
                            }
                            JOINT LeftFinger4
                            {
                                OFFSET   7.435090   0.000000  -3.252850
                                CHANNELS 3 Zrotation Xrotation Yrotation
                                JOINT LeftFinger41
                                {
                                    OFFSET   3.717550   0.000000   0.000000
                                    CHANNELS 3 Zrotation Xrotation Yrotation
                                    JOINT LeftFinger42
                                    {
                                        OFFSET   1.858760   0.000000   0.000000
                                        CHANNELS 3 Zrotation Xrotation Yrotation
                                        End Site
                                        {
                                            OFFSET   1.818440   0.000000   0.000000
                                        }
                                    }
                                }
                            }
                        }
                    }
                }
            }
            JOINT RightCollar
            {
                OFFSET  -3.911900  19.017000  -0.467062
                CHANNELS 3 Zrotation Xrotation Yrotation
                JOINT RightShoulder
                {
                    OFFSET -10.383700   0.000015   0.000000
                    CHANNELS 3 Zrotation Xrotation Yrotation
                    JOINT RightElbow
                    {
                        OFFSET -26.662100   0.001341   0.000385
                        CHANNELS 3 Zrotation Xrotation Yrotation
                        JOINT RightWrist
                        {
                            OFFSET -28.869000   0.000025  -0.000080
                            CHANNELS 3 Zrotation Xrotation Yrotation
                            JOINT RightFinger0
                            {
                                OFFSET  -2.044650  -2.323490   3.252850
                                CHANNELS 3 Zrotation Xrotation Yrotation
                                JOINT RightFinger01
                                {
                                    OFFSET  -3.088130   0.000000   0.000000
                                    CHANNELS 3 Zrotation Xrotation Yrotation
                                    JOINT RightFinger02
                                    {
                                        OFFSET  -2.639460   0.000000   0.000000
                                        CHANNELS 3 Zrotation Xrotation Yrotation
                                        End Site
                                        {
                                            OFFSET  -2.582190   0.000000   0.000000
                                        }
                                    }
                                }
                            }
                            JOINT RightFinger1
                            {
                                OFFSET  -8.364480   0.000000   3.252850
                                CHANNELS 3 Zrotation Xrotation Yrotation
                                JOINT RightFinger11
                                {
                                    OFFSET  -4.646930   0.000000   0.000000
                                    CHANNELS 3 Zrotation Xrotation Yrotation
                                    JOINT RightFinger12
                                    {
                                        OFFSET  -2.323470   0.000000   0.000000
                                        CHANNELS 3 Zrotation Xrotation Yrotation
                                        End Site
                                        {
                                            OFFSET  -2.273050   0.000000   0.000000
                                        }
                                    }
                                }
                            }
                            JOINT RightFinger2
                            {
                                OFFSET  -8.364480   0.000000   1.078090
                                CHANNELS 3 Zrotation Xrotation Yrotation
                                JOINT RightFinger21
                                {
                                    OFFSET  -5.111610   0.000000   0.000000
                                    CHANNELS 3 Zrotation Xrotation Yrotation
                                    JOINT RightFinger22
                                    {
                                        OFFSET  -2.788160   0.000000   0.000000
                                        CHANNELS 3 Zrotation Xrotation Yrotation
                                        End Site
                                        {
                                            OFFSET  -2.727660   0.000000   0.000000
                                        }
                                    }
                                }
                            }
                            JOINT RightFinger3
                            {
                                OFFSET  -7.899780   0.000000  -1.078090
                                CHANNELS 3 Zrotation Xrotation Yrotation
                                JOINT RightFinger31
                                {
                                    OFFSET  -4.646920   0.000000   0.000000
                                    CHANNELS 3 Zrotation Xrotation Yrotation
                                    JOINT RightFinger32
                                    {
                                        OFFSET  -2.323470   0.000000   0.000000
                                        CHANNELS 3 Zrotation Xrotation Yrotation
                                        End Site
                                        {
                                            OFFSET  -2.273050   0.000000   0.000000
                                        }
                                    }
                                }
                            }
                            JOINT RightFinger4
                            {
                                OFFSET  -7.435090   0.000000  -3.252850
                                CHANNELS 3 Zrotation Xrotation Yrotation
                                JOINT RightFinger41
                                {
                                    OFFSET  -3.717550   0.000000   0.000000
                                    CHANNELS 3 Zrotation Xrotation Yrotation
                                    JOINT RightFinger42
                                    {
                                        OFFSET  -1.858770   0.000000   0.000000
                                        CHANNELS 3 Zrotation Xrotation Yrotation
                                        End Site
                                        {
                                            OFFSET  -1.818440   0.000000   0.000000
                                        }
                                    }
                                }
                            }
                        }
                    }
                }
            }
        }
    }
    JOINT LeftHip
    {
        OFFSET   9.783010   0.000000   0.000000
        CHANNELS 3 Zrotation Xrotation Yrotation
        JOINT LeftKnee
        {
            OFFSET   0.000070 -41.789100   0.000028
            CHANNELS 3 Zrotation Xrotation Yrotation
            JOINT LeftAnkle
            {
                OFFSET   0.000087 -41.133200  -0.000100
                CHANNELS 3 Zrotation Xrotation Yrotation
                JOINT LeftToe
                {
                    OFFSET   0.000000  -6.358960  14.674500
                    CHANNELS 3 Zrotation Xrotation Yrotation
                    End Site
                    {
                        OFFSET   0.000000   0.000000   3.913200
                    }
                }
            }
        }
    }
    JOINT RightHip
    {
        OFFSET  -9.783020   0.000000   0.000000
        CHANNELS 3 Zrotation Xrotation Yrotation
        JOINT RightKnee
        {
            OFFSET   0.000044 -41.789100  -0.000870
            CHANNELS 3 Zrotation Xrotation Yrotation
            JOINT RightAnkle
            {
                OFFSET  -0.000090 -41.133200  -0.000245
                CHANNELS 3 Zrotation Xrotation Yrotation
                JOINT RightToe
                {
                    OFFSET   0.000000  -6.358960  14.674500
                    CHANNELS 3 Zrotation Xrotation Yrotation
                    End Site
                    {
                        OFFSET   0.000000   0.000000   3.913200
                    }
                }
            }
        }
    }
}
MOTION
Frames: 4
Frame Time:   0.016667
 -0.114413  89.449900  -0.383308  -1.136680  -0.807889   3.522800   0.581468   2.077820  -0.659849   1.188030   4.148720  -1.342100  -1.687750   0.151308   0.006818  -2.783660   0.306401   3.949810  -2.897850   4.341230   9.506650 -81.106000   5.554890   2.658570  -0.504008   2.050850 -18.672100  10.914600 -10.888200  -0.070560  41.555900  36.453300 -56.482900 -32.896800  -0.001910   0.001402 -11.448400  -0.001047   0.000526 -36.490900  -0.003500   0.004651 -29.856300   0.003295  -0.005461 -20.899400   0.006383  -0.001634 -30.550100  -3.736000   6.291850 -46.133700  -0.003546  -0.000954 -30.725000  -0.001480   0.005619 -28.415300  -4.443710   8.149280 -39.784900  -0.013933  -0.000246 -26.496800  -0.008265   0.006779 -34.888600  -5.336610   7.597140 -52.864800  -0.013808   0.002342 -35.207900   0.000566   0.005458   5.546680   5.638460   6.096090  74.869500  -8.883970  -2.648390   4.141270  -3.994630  16.430700 -17.733600  -2.302810   4.798220 -44.522800  42.919900  84.022000  28.565900   0.001080  -0.000498   9.282950  -0.007408   0.006258  26.256100   0.960584   1.946500  21.495600   0.001020   0.001893  15.046900   0.001001   0.003220  27.261400   0.926646   1.797740  28.161200   0.000000   0.000374  18.755300  -0.008550   0.002020  28.107100  -0.149125  -0.279204  32.727000  -0.000657   0.000508  21.796200  -0.012616   0.000147  33.431600  -0.174508  -0.264180  50.148100   0.000722  -0.001726  33.398600   0.002290  -0.004813   4.393340   2.734030  -2.922190  -0.217003   0.001371  12.397500  -2.864240  -2.061890   0.876431  -0.000000   0.000000   0.000000  -1.645590   3.447880  -6.022910   1.218890   0.234339 -11.784000   0.401380  -2.374590  -2.480350  -0.000000   0.000000   0.000000
 -0.110194  89.449900  -0.386880  -1.143240  -0.792188   3.509220   0.586293   2.082430  -0.658208   1.197690   4.157880  -1.339050  -1.695590   0.177527   0.006761  -2.793250   0.359028   3.979080  -2.896040   4.325840   9.538510 -81.141700   5.620030   2.614860  -0.496707   2.044680 -18.663000  10.868500 -10.963400  -0.109036  40.776000  35.520500 -56.018300 -33.140800  -0.001911   0.001407 -11.570500  -0.001048   0.000522 -36.530800  -0.016819   0.022390 -29.888900   0.003227  -0.005450 -20.922200   0.006342  -0.001636 -30.637500  -3.736360   6.267390 -46.263700  -0.003660  -0.000953 -30.811700  -0.001482   0.005620 -28.413800  -4.449180   8.158940 -39.794600  -0.014130  -0.000244 -26.503200  -0.008382   0.006783 -35.031100  -5.360890   7.598970 -53.080000  -0.014003   0.002355 -35.351300   0.000486   0.005450   5.532340   5.629050   6.105710  74.885300  -8.814200  -2.613470   4.135800  -4.010220  16.433400 -17.718500  -2.315840   4.820890 -44.312300  42.812500  83.894000  28.649700   0.001081  -0.000494   9.324860  -0.007406   0.006250  26.262800   0.948137   1.920220  21.500700   0.001019   0.001893  15.050400   0.001005   0.003220  27.261000   0.897118   1.741010  28.159500   0.000000   0.000373  18.754200  -0.008581   0.002013  28.115200  -0.148069  -0.276930  32.786500  -0.000629   0.000507  21.835800  -0.012655   0.000147  33.510400  -0.173483  -0.261891  50.266700   0.000687  -0.001725  33.477600   0.002271  -0.004814   4.398220   2.727830  -2.912080  -0.222072   0.001020  12.395100  -2.866000  -2.055860   0.888804   0.000000   0.000000   0.000000  -1.651280   3.437450  -6.035970   1.230250   0.212736 -11.784400   0.400801  -2.353260  -2.459560   0.000000   0.000000  -0.000000
 -0.102532  89.450000  -0.394213  -1.152560  -0.776495   3.486130   0.594061   2.092600  -0.655042   1.213250   4.178160  -1.333110  -1.708160   0.228100   0.006704  -2.809300   0.460798   4.027040  -2.892020   4.303060   9.597560 -81.215900   5.758970   2.544520  -0.494195   2.000800 -18.653600  10.816500 -11.073400  -0.147549  40.040300  34.553900 -55.630300 -33.490900  -0.001918   0.001440 -11.745500  -0.001057   0.000517 -36.615200  -0.038494   0.051596 -29.957900   0.003091  -0.005429 -20.970500   0.006254  -0.001641 -30.724800  -3.736800   6.242930 -46.393800  -0.003851  -0.000952 -30.898300  -0.001486   0.005623 -28.408500  -4.467310   8.192860 -39.804300  -0.014405  -0.000243 -26.509700  -0.008545   0.006792 -35.170500  -5.402600   7.610240 -53.295200  -0.014275   0.002379 -35.494600   0.000336   0.005438   5.506270   5.612670   6.115250  74.924400  -8.694270  -2.560020   4.128740  -4.051600  16.451400 -17.653700  -2.396360   4.843790 -43.537700  42.344800  83.423200  28.855800   0.001082  -0.000490   9.427890  -0.007402   0.006243  26.277400   0.935689   1.893950  21.511900   0.001017   0.001892  15.058300   0.001008   0.003219  27.262400   0.835262   1.621390  28.157900   0.000000   0.000372  18.753100  -0.008668   0.002006  28.126900  -0.143558  -0.268073  32.872000  -0.000581   0.000507  21.892700  -0.012742   0.000147  33.589300  -0.168407  -0.253291  50.385300   0.000609  -0.001725  33.556600   0.002227  -0.004814   4.403900   2.704810  -2.901930  -0.227140   0.000669  12.392800  -2.870390  -2.049830   0.907711  -0.000000   0.000000   0.000000  -1.661420   3.415690  -6.048960   1.243840   0.191134 -11.784800   0.400658  -2.331960  -2.427660   0.000000   0.000000   0.000000
 -0.095057  89.450100  -0.402797  -1.156970  -0.776692   3.466500   0.599275   2.104870  -0.651494   1.223720   4.202670  -1.326340  -1.716000   0.281633   0.008239  -2.820320   0.569044   4.064750  -2.885520   4.289150   9.656630 -81.304600   5.942610   2.492430  -0.518470   1.858800 -18.698000  10.821100 -11.102300  -0.098540  39.955100  34.669800 -55.798000 -33.618000  -0.010629   0.016277 -11.809000  -0.006920   0.006812 -36.753400  -0.058594   0.079723 -30.070800   0.002911  -0.005404 -21.049600   0.006131  -0.001646 -30.675600  -3.736810   6.257500 -46.320300  -0.004041  -0.000954 -30.849300  -0.001496   0.005627 -28.397000  -4.505420   8.267260 -39.523700  -0.014520  -0.000245 -26.322800  -0.008615   0.006809 -35.058200  -5.437740   7.687870 -53.134800  -0.014393   0.002405 -35.387700   0.000133   0.005429   5.481590   5.594150   6.109160  74.979000  -8.581650  -2.524880   4.143880  -4.116780  16.550900 -17.559200  -2.510730   4.810720 -42.239300  41.396500  82.663900  29.190200   0.001078  -0.000492   9.595070  -0.007401   0.006248  26.285400   0.958074   1.941430  21.519200   0.001014   0.001891  15.063300   0.001008   0.003218  27.271000   0.752132   1.459150  28.181100   0.000000   0.000372  18.768600  -0.008835   0.002010  28.131500  -0.130794  -0.244013  32.904900  -0.000528   0.000505  21.914600  -0.012866   0.000146  33.588800  -0.153226  -0.230333  50.384400   0.000494  -0.001728  33.556000   0.002169  -0.004813   4.402600   2.643780  -2.904250  -0.228627   0.091689  12.404200  -2.878730  -2.087970   0.918640  -0.000000   0.000000   0.000000  -1.672930   3.380740  -6.041580   1.252950   0.222346 -11.784800   0.403694  -2.333740  -2.405190  -0.000000   0.000000   0.000000
